<svg xmlns="http://www.w3.org/2000/svg" width="48" height="48" viewBox="0 0 48 48">
  <path fill="#4285F4" d="M24 9.5c3.9 0 7.4 1.3 10.1 3.8l7.5-7.5C37.5 1.9 31.2 0 24 0 14.6 0 6.3 5.5 2.4 13.5l8.8 6.8C13.1 14.4 18.1 9.5 24 9.5z"></path>
  <path fill="#34A853" d="M46.1 24.5c0-1.5-.1-3-.4-4.5H24v9h12.5c-.5 2.6-1.9 4.8-4.1 6.3l6.4 5c3.7-3.4 7.3-8.9 7.3-15.8z"></path>
  <path fill="#FBBC05" d="M13.2 28.2c-1-2.6-1-5.5 0-8.1l-8.8-6.8C1.6 17.1 0 20.4 0 24c0 3.6 1.6 6.9 4.4 10.7l8.8-6.5z"></path>
  <path fill="#EA4335" d="M24 48c6.5 0 11.9-2.1 15.9-5.8l-6.4-5c-2.1 1.5-4.9 2.4-9.5 2.4-5.9 0-10.9-4.8-12.6-11.4l-8.8 6.5C6.3 42.5 14.6 48 24 48z"></path>
</svg>
